<?xml version="1.0" encoding="iso-8859-1"?>
<!-- Generator: Adobe Illustrator 25.2.1, SVG Export Plug-In . SVG Version: 6.00 Build 0)  -->
<svg version="1.1" id="Logo" xmlns="http://www.w3.org/2000/svg" xmlns:xlink="http://www.w3.org/1999/xlink" x="0px" y="0px"
	 viewBox="0 0 2160 2160" style="enable-background:new 0 0 2160 2160;" xml:space="preserve">
<path style="fill:#FFFFFF;" d="M1846.514,982.132H353.482c-19.74,0-35.892,16.151-35.892,35.892v934.774
	c0,19.74,16.151,35.892,35.892,35.892h1493.032c19.74,0,35.892-16.151,35.892-35.892v-934.774
	C1882.406,998.283,1866.254,982.132,1846.514,982.132z M1045.445,1480.034c-218.717,83.683-437.435,167.367-656.153,251.05
	c0-48.498,0-96.996,0-145.495c155.004-61.812,310.008-123.623,465.013-185.434c-154.053-59.91-308.106-119.819-462.16-179.729
	c-0.951-49.449-1.902-98.898-2.853-148.347c218.718,85.585,437.435,171.17,656.153,256.755
	C1045.445,1379.233,1045.445,1429.634,1045.445,1480.034z M1743.289,1942.714h-643.292v-129.602h643.292V1942.714z"/>
<g id="BRO">
	<path style="fill:#FFFFFF;" d="M834.282,662.83c-1.784-21.803-6.341-77.483-48.702-117.651
		c-21.843-20.712-46.726-30.651-57.693-34.922c-17.804-6.933-33.619-10.067-45.057-11.6c0-2.113,0-4.225,0-6.338
		c15.003-3.516,71.081-18.532,103.995-70.767c22.238-35.292,24.205-72.185,25.094-88.863c0.796-14.932,1.705-35.453-6.037-60.575
		c-12.615-40.936-39.561-66.054-53.893-77.279c-7.226-5.659-18.565-13.521-39.287-22.586
		c-23.36-10.219-63.302-24.005-153.391-27.159c-48.231-1.688-84.775,0.583-113.946,2.475c-49.989,3.242-91.547,8.487-121.314,12.92
		c-0.004,238.287-0.009,476.574-0.013,714.861c7.654,1.591,18.725,3.75,32.135,5.855c34.324,5.389,60.29,6.71,91.871,8.223
		c32.866,1.575,58.158,1.614,75.911,1.62c21.74,0.007,36.992,0.011,51.189-0.699c25.47-1.274,71.184-3.562,121.528-24.394
		c25.99-10.755,65.23-26.992,97.138-67.295c24.195-30.561,32.855-60.661,35.302-70.008
		C830.78,722.265,837.067,696.861,834.282,662.83z M458.952,267.524c15.722-1.34,33.311-2.49,52.519-3.182
		c19.309-0.696,31.446-1.1,48.225-0.083c32.781,1.987,47.598,7.237,52.078,8.908c8.132,3.032,16.049,5.984,25.113,12.666
		c5.205,3.837,27.661,21.339,32.428,51.288c1.066,6.699,0.903,11.853,0.757,16.442c-0.207,6.522-0.977,25.027-10.396,42.901
		c-8.839,16.773-21.263,25.34-36.174,35.622c-24.009,16.556-46.204,22.396-51.875,23.799c-6.482,1.603-16.213,3.549-60.817,4.073
		c-21.308,0.25-39.082,0.041-51.771-0.217C459.009,395.669,458.98,331.596,458.952,267.524z M686.207,666.557
		c-0.091,7.757-0.835,36.212-21.215,61.716c-13.732,17.184-29.763,24.748-41.956,30.332
		c-31.973,14.642-61.268,14.132-101.866,12.986c-15.044-0.425-36.435-1.749-62.107-5.865c-0.006-65.968-0.011-131.935-0.017-197.903
		c28.954-0.743,53.049-0.408,70.4,0.086c74.698,2.126,95.616,9.216,112.405,19.263c21.128,12.643,30.035,26.567,32.425,30.511
		C686.298,637.524,686.318,657.117,686.207,666.557z"/>
	<path style="fill:#FFFFFF;" d="M1204.025,563.701c41.88-24.734,62.275-45.544,62.276-45.544
		c12.764-13.023,20.341-24.841,24.277-31.055c24.753-39.08,29.053-77.765,30.951-96.709c3.12-31.151,9.208-91.923-27.961-147.846
		c-26.27-39.525-61.575-57.712-84.547-69.195c-19.657-9.826-60.736-27.305-167.57-28.404
		c-48.965-0.504-117.489,2.375-199.208,17.606c-0.092,239.376-0.184,478.752-0.276,718.128c47.35-0.081,94.7-0.162,142.05-0.242
		c0.058-94.527,0.115-189.054,0.173-283.581c28.36,0.03,56.719,0.06,85.079,0.09c48.71,94.666,97.42,189.331,146.13,283.997
		c54.555-0.023,109.11-0.046,163.666-0.069C1272.499,687.778,1204.037,563.723,1204.025,563.701z M1174.099,377.115
		c-0.285,14.245-0.939,34.601-13.431,55.796c-8.388,14.231-18.675,23.008-23.1,26.506c-9.866,7.799-18.663,11.549-26.421,14.789
		c-20.469,8.55-37.932,10.454-50.6,11.739c-10.61,1.076-21.699,1.029-43.877,0.935c-13.665-0.058-24.982-0.334-32.805-0.578
		c0.188-70.165,0.375-140.329,0.563-210.494c30.739-5.557,56.538-5.822,74.827-4.899c30.48,1.539,51.522,2.868,73.103,17.02
		c18.689,12.255,27.902,27.647,29.953,31.202C1174.827,340.819,1174.412,361.533,1174.099,377.115z"/>
	<path style="fill:#FFFFFF;" d="M1879.653,481.4c0,0-3.065-69.083-16.317-124.543c-3.911-16.368-8.482-30.555-8.972-32.066
		c-4.297-13.253-8.119-22.715-9.233-25.444c-4.438-10.871-8.389-18.943-9.874-21.931c-5.7-11.475-10.703-19.791-11.97-21.88
		c0,0-9.448-15.584-20.162-28.865c-28.77-35.661-71.024-58.359-71.024-58.359c-54.292-29.165-105.261-28.195-132.725-27.673
		c-50.191,0.955-84.999,14.13-93.418,17.454c-19.129,7.552-33.042,15.961-37.895,18.983c-8.413,5.238-25.546,16.662-43.674,35.276
		c-5.892,6.05-21.47,22.697-37.832,50.99c-27.065,46.799-35.648,89.797-42.671,126.558c-6.777,35.477-8.469,63.164-9.667,83.94
		c-0.684,11.876-2.452,47.515,0.564,94.771c2.197,34.418,4.233,66.312,14.207,107.412c7.406,30.516,14.602,60.168,34.29,94.412
		c10.395,18.08,31.21,53.425,72.003,82.24c57.594,40.683,117.945,42.168,148.952,42.931c17.51,0.431,64.521,0.073,109.634-18.694
		c24.93-10.372,43.781-24.077,45.904-25.639c4.031-2.965,15.773-11.827,29.139-25.912c9.246-9.743,23.571-26.517,38.28-53.429
		c35.547-65.034,45.09-137.584,48.129-162.136c4.546-36.72,4.957-72.253,5.071-84.737
		C1880.582,504.524,1879.973,488.606,1879.653,481.4z M1730.076,576.621c-2.574,50.505-7.52,75.356-9.412,84.304
		c-5.596,26.477-11.197,40.279-16.933,51.263c-13.393,25.646-27.815,36.48-31.628,39.22c-8.559,6.152-16.661,9.612-19.725,10.85
		c-11.222,4.534-20.564,5.79-27.652,6.695c-2.7,0.345-11.327,1.362-22.686,0.944c-6-0.221-14.126-0.562-24.467-3.034
		c-5.066-1.211-12.781-3.107-21.855-7.818c-1.845-0.958-9.531-5.035-18.047-12.596c-3.767-3.345-17.981-16.503-30.472-43.643
		c-9.294-20.195-12.447-36.86-16.144-57.14c-3.381-18.547-4.647-33.241-5.569-46.19c-3.927-55.155-3.089-99.459-2.993-103.964
		c0,0,1.672-78.613,12.51-122.766c1.779-7.247,4.044-14.923,4.044-14.923c3.618-12.261,6.829-23.142,12.593-34.711
		c3.137-6.297,7.575-15.205,15.938-24.525c13.376-14.905,28.342-21.447,34.545-24.08c21.474-9.115,40.224-8.425,49.974-7.958
		c10.415,0.499,29.901,1.641,49.883,12.88c25.052,14.091,36.538,35.984,45.031,52.703c13.62,26.811,16.246,49.424,20.553,86.514
		c2.749,23.671,3.019,41.615,3.56,77.501C1731.451,517.749,1731.787,543.053,1730.076,576.621z"/>
</g>
</svg>
