<?xml version="1.0" encoding="utf-8"?>
<!-- Generator: Adobe Illustrator 24.1.0, SVG Export Plug-In . SVG Version: 6.00 Build 0)  -->
<svg version="1.0" id="Logo" xmlns="http://www.w3.org/2000/svg" xmlns:xlink="http://www.w3.org/1999/xlink" x="0px" y="0px"
	 viewBox="0 0 2160 2160" style="enable-background:new 0 0 2160 2160;" xml:space="preserve">
<style type="text/css">
	.st0{fill:#373737;}
</style>
<path class="st0" d="M1846.51,982.13H353.48c-19.74,0-35.89,16.15-35.89,35.89v934.77c0,19.74,16.15,35.89,35.89,35.89h1493.03
	c19.74,0,35.89-16.15,35.89-35.89v-934.77C1882.41,998.28,1866.25,982.13,1846.51,982.13z M1045.45,1480.03
	c-218.72,83.68-437.44,167.37-656.15,251.05c0-48.5,0-97,0-145.49c155-61.81,310.01-123.62,465.01-185.43
	c-154.05-59.91-308.11-119.82-462.16-179.73c-0.95-49.45-1.9-98.9-2.85-148.35c218.72,85.58,437.44,171.17,656.15,256.76
	C1045.45,1379.23,1045.45,1429.63,1045.45,1480.03z M1743.29,1942.71H1100v-129.6h643.29V1942.71z"/>
<g id="BRO">
	<path class="st0" d="M834.28,662.83c-1.78-21.8-6.34-77.48-48.7-117.65c-21.84-20.71-46.73-30.65-57.69-34.92
		c-17.8-6.93-33.62-10.07-45.06-11.6c0-2.11,0-4.23,0-6.34c15-3.52,71.08-18.53,104-70.77c22.24-35.29,24.2-72.19,25.09-88.86
		c0.8-14.93,1.7-35.45-6.04-60.57c-12.62-40.94-39.56-66.05-53.89-77.28c-7.23-5.66-18.57-13.52-39.29-22.59
		c-23.36-10.22-63.3-24.01-153.39-27.16c-48.23-1.69-84.78,0.58-113.95,2.47c-49.99,3.24-91.55,8.49-121.31,12.92
		c0,238.29-0.01,476.57-0.01,714.86c7.65,1.59,18.73,3.75,32.14,5.86c34.32,5.39,60.29,6.71,91.87,8.22
		c32.87,1.57,58.16,1.61,75.91,1.62c21.74,0.01,36.99,0.01,51.19-0.7c25.47-1.27,71.18-3.56,121.53-24.39
		c25.99-10.75,65.23-26.99,97.14-67.29c24.2-30.56,32.85-60.66,35.3-70.01C830.78,722.27,837.07,696.86,834.28,662.83z
		 M458.95,267.52c15.72-1.34,33.31-2.49,52.52-3.18c19.31-0.7,31.45-1.1,48.23-0.08c32.78,1.99,47.6,7.24,52.08,8.91
		c8.13,3.03,16.05,5.98,25.11,12.67c5.21,3.84,27.66,21.34,32.43,51.29c1.07,6.7,0.9,11.85,0.76,16.44
		c-0.21,6.52-0.98,25.03-10.4,42.9c-8.84,16.77-21.26,25.34-36.17,35.62c-24.01,16.56-46.2,22.4-51.88,23.8
		c-6.48,1.6-16.21,3.55-60.82,4.07c-21.31,0.25-39.08,0.04-51.77-0.22C459.01,395.67,458.98,331.6,458.95,267.52z M686.21,666.56
		c-0.09,7.76-0.84,36.21-21.22,61.72c-13.73,17.18-29.76,24.75-41.96,30.33c-31.97,14.64-61.27,14.13-101.87,12.99
		c-15.04-0.42-36.44-1.75-62.11-5.86c-0.01-65.97-0.01-131.94-0.02-197.9c28.95-0.74,53.05-0.41,70.4,0.09
		c74.7,2.13,95.62,9.22,112.4,19.26c21.13,12.64,30.03,26.57,32.42,30.51C686.3,637.52,686.32,657.12,686.21,666.56z"/>
	<path class="st0" d="M1204.02,563.7c41.88-24.73,62.28-45.54,62.28-45.54c12.76-13.02,20.34-24.84,24.28-31.05
		c24.75-39.08,29.05-77.77,30.95-96.71c3.12-31.15,9.21-91.92-27.96-147.85c-26.27-39.52-61.58-57.71-84.55-69.2
		c-19.66-9.83-60.74-27.31-167.57-28.4c-48.96-0.5-117.49,2.37-199.21,17.61c-0.09,239.38-0.18,478.75-0.28,718.13
		c47.35-0.08,94.7-0.16,142.05-0.24c0.06-94.53,0.12-189.05,0.17-283.58c28.36,0.03,56.72,0.06,85.08,0.09
		c48.71,94.67,97.42,189.33,146.13,284c54.56-0.02,109.11-0.05,163.67-0.07C1272.5,687.78,1204.04,563.72,1204.02,563.7z
		 M1174.1,377.12c-0.29,14.25-0.94,34.6-13.43,55.8c-8.39,14.23-18.67,23.01-23.1,26.51c-9.87,7.8-18.66,11.55-26.42,14.79
		c-20.47,8.55-37.93,10.45-50.6,11.74c-10.61,1.08-21.7,1.03-43.88,0.94c-13.67-0.06-24.98-0.33-32.8-0.58
		c0.19-70.16,0.38-140.33,0.56-210.49c30.74-5.56,56.54-5.82,74.83-4.9c30.48,1.54,51.52,2.87,73.1,17.02
		c18.69,12.26,27.9,27.65,29.95,31.2C1174.83,340.82,1174.41,361.53,1174.1,377.12z"/>
	<path class="st0" d="M1879.65,481.4c0,0-3.07-69.08-16.32-124.54c-3.91-16.37-8.48-30.55-8.97-32.07
		c-4.3-13.25-8.12-22.72-9.23-25.44c-4.44-10.87-8.39-18.94-9.87-21.93c-5.7-11.47-10.7-19.79-11.97-21.88
		c0,0-9.45-15.58-20.16-28.86c-28.77-35.66-71.02-58.36-71.02-58.36c-54.29-29.16-105.26-28.2-132.73-27.67
		c-50.19,0.95-85,14.13-93.42,17.45c-19.13,7.55-33.04,15.96-37.89,18.98c-8.41,5.24-25.55,16.66-43.67,35.28
		c-5.89,6.05-21.47,22.7-37.83,50.99c-27.06,46.8-35.65,89.8-42.67,126.56c-6.78,35.48-8.47,63.16-9.67,83.94
		c-0.68,11.88-2.45,47.51,0.56,94.77c2.2,34.42,4.23,66.31,14.21,107.41c7.41,30.52,14.6,60.17,34.29,94.41
		c10.39,18.08,31.21,53.42,72,82.24c57.59,40.68,117.94,42.17,148.95,42.93c17.51,0.43,64.52,0.07,109.63-18.69
		c24.93-10.37,43.78-24.08,45.9-25.64c4.03-2.97,15.77-11.83,29.14-25.91c9.25-9.74,23.57-26.52,38.28-53.43
		c35.55-65.03,45.09-137.58,48.13-162.14c4.55-36.72,4.96-72.25,5.07-84.74C1880.58,504.52,1879.97,488.61,1879.65,481.4z
		 M1730.08,576.62c-2.57,50.5-7.52,75.36-9.41,84.3c-5.6,26.48-11.2,40.28-16.93,51.26c-13.39,25.65-27.81,36.48-31.63,39.22
		c-8.56,6.15-16.66,9.61-19.73,10.85c-11.22,4.53-20.56,5.79-27.65,6.69c-2.7,0.34-11.33,1.36-22.69,0.94
		c-6-0.22-14.13-0.56-24.47-3.03c-5.07-1.21-12.78-3.11-21.86-7.82c-1.85-0.96-9.53-5.04-18.05-12.6
		c-3.77-3.35-17.98-16.5-30.47-43.64c-9.29-20.2-12.45-36.86-16.14-57.14c-3.38-18.55-4.65-33.24-5.57-46.19
		c-3.93-55.15-3.09-99.46-2.99-103.96c0,0,1.67-78.61,12.51-122.77c1.78-7.25,4.04-14.92,4.04-14.92
		c3.62-12.26,6.83-23.14,12.59-34.71c3.14-6.3,7.58-15.21,15.94-24.52c13.38-14.91,28.34-21.45,34.55-24.08
		c21.47-9.12,40.22-8.42,49.97-7.96c10.42,0.5,29.9,1.64,49.88,12.88c25.05,14.09,36.54,35.98,45.03,52.7
		c13.62,26.81,16.25,49.42,20.55,86.51c2.75,23.67,3.02,41.61,3.56,77.5C1731.45,517.75,1731.79,543.05,1730.08,576.62z"/>
</g>
</svg>
